# xmcd
#
# Track frame offsets:
#	150
#	12169
#	46815
#	78105
#	113254
#	134791
#	165223
#	185541
#	213800
#	236473
#	259716
#	275130
#
# Disc length: 3975 seconds
#
# Revision: 1
# Processed by: cddbd v1.5.2PL0 Copyright (c) Steve Scherf et al.
# Submitted via: audiograbber 1.83.01
#
DISCID=920f850c
DTITLE=Grateful Dead - 72-12-15 Long Beach Arena, Long Beach CA
DYEAR=1900
DGENRE=
TTITLE0=Promised Land
TTITLE1=Sugaree
TTITLE2=Black Throated Wind
TTITLE3=Tennessee Jed
TTITLE4=El Paso
TTITLE5=Candyman
TTITLE6=Big River
TTITLE7=China Cat Sunflower
TTITLE8=I Know You Rider
TTITLE9=Box Of Rain
TTITLE10=Mexicali Blues
TTITLE11=Brown Eyed Women
EXTD=
EXTT0=
EXTT1=
EXTT2=
EXTT3=
EXTT4=
EXTT5=
EXTT6=
EXTT7=
EXTT8=
EXTT9=
EXTT10=
EXTT11=
PLAYORDER=
